<svg id="Capa_1" data-name="Capa 1" xmlns="http://www.w3.org/2000/svg" xmlns:xlink="http://www.w3.org/1999/xlink" viewBox="0 0 300 300"><defs><style>.cls-1{fill:url(#Degradado_sin_nombre_24);}.cls-2{fill:url(#Degradado_sin_nombre_43);}.cls-3{fill:#bcbcbc;}</style><linearGradient id="Degradado_sin_nombre_24" x1="26.34" y1="148.76" x2="238.37" y2="148.76" gradientUnits="userSpaceOnUse"><stop offset="0" stop-color="#ffff96"/><stop offset="1" stop-color="#f2ba02"/></linearGradient><linearGradient id="Degradado_sin_nombre_43" x1="211.66" y1="109.02" x2="211.66" y2="277.52" gradientUnits="userSpaceOnUse"><stop offset="0" stop-color="#ededed"/><stop offset="0.34" stop-color="#ebebeb"/><stop offset="0.5" stop-color="#e3e3e3"/><stop offset="0.63" stop-color="#d6d6d6"/><stop offset="0.74" stop-color="#c4c4c4"/><stop offset="0.84" stop-color="#ababab"/><stop offset="0.92" stop-color="#8e8e8e"/><stop offset="1" stop-color="#6d6d6d"/></linearGradient></defs><path class="cls-1" d="M140.59,259.19H102q-30.48,0-61,0c-9.16,0-14.69-5.56-14.7-14.81q0-65,0-129.92,0-30.08,0-60.16c0-10.76,5.24-16,16-16H60v3.08q0,13.71,0,27.42C60,77.43,64.51,82,73,82q58.71,0,117.41,0c8,0,12.75-4.68,12.81-12.71.06-9.23,0-18.46,0-27.69v-3.3h5.17c5.15,0,10.29,0,15.44,0,8.36,0,14.3,5.54,14.39,13.84.17,15.17,0,30.35.1,45.52,0,2.52-1.56,2.08-3,2.08H140.59Z"/><path class="cls-2" d="M149.72,277.52v-3.11q0-81.2-.06-162.38c0-2.31.59-3,3-3q39.13.12,78.26,0a5.35,5.35,0,0,1,4.36,1.93c12.18,13.39,24.45,26.7,36.59,40.13a7.3,7.3,0,0,1,1.75,4.42q.14,59.76.07,119.52c0,.78-.11,1.56-.19,2.48Z"/><path class="cls-3" d="M70,72c-.06-.69-.14-1.21-.14-1.72,0-8.61,0-17.21,0-25.82,0-4.36,2.76-7.17,7.11-7.21,7.9-.06,15.79,0,23.69,0,4.18,0,4.17,0,4.16-4.29s0-8.33,0-12.5c.05-5.51,3.09-8.6,8.53-8.62q17.7,0,35.39,0c5.23,0,8.45,3.18,8.57,8.45.1,4.79.1,9.59,0,14.37-.06,2,.7,2.61,2.61,2.59,8.61-.06,17.21,0,25.81,0,5.44,0,7.91,2.56,7.92,8q0,12,0,24V72Z"/></svg>