<svg id="Capa_1" data-name="Capa 1" xmlns="http://www.w3.org/2000/svg" xmlns:xlink="http://www.w3.org/1999/xlink" viewBox="0 0 300 300"><defs><style>.cls-1{fill:url(#Degradado_sin_nombre_14);}.cls-2{fill:#147128;}</style><linearGradient id="Degradado_sin_nombre_14" x1="96.69" y1="151.48" x2="243.56" y2="151.48" gradientUnits="userSpaceOnUse"><stop offset="0" stop-color="#fff"/><stop offset="1" stop-color="#147128"/></linearGradient></defs><path class="cls-1" d="M185.48,42H102.74V96.78c0,2.18.53,4.55-.14,6.49s-2.58,3.64-3.94,5.44l-2-1.22V35.07h89.14V11.23c20.44,6.86,35.93,22.49,57.73,24.61v237c-9.72,2.66-19.35,4.91-28.72,8s-18.67,7-28.89,10.88v-16.3h-89V203.27l2.09-.84c1.25,3.28,3.49,6.54,3.57,9.85.39,15.79.17,31.6.21,47.41,0,2.65.23,5.3.37,8.32h82.34Z"/><path class="cls-2" d="M94.78,192.76c4.29,5.18,9.16,11.71,14.76,17.55,2.36,2.46,6.2,4.78,9.45,4.9,13.87.52,27.77.14,41.66.19,6.4,0,10.76-2.52,10.77-9.32,0-7.83-5.86-7.89-11.57-7.87-10.62,0-21.26.35-31.86-.2a16.15,16.15,0,0,1-9.46-4.42A59.31,59.31,0,0,1,102,165.2c-2.91-11.23-7.11-22.12-10.81-33.38,12-2.12,22.4-2,29.62,8.81.88,1.33,2.34,2.26,3.49,3.41,4.12,4.12,8.93,6.26,13.5,1.54,4.3-4.45,1.94-9-1.92-12.81a21.18,21.18,0,0,1-2.92-2.83c-14.12-21-35.15-15.28-54.68-13.64-14.71,1.23-25.12,9-27.92,24.59-1.44,8.1-6.16,11.3-14.39,10-3.44-.57-7.55-1.07-10.46.3s-5.89,4.94-6.15,7.8c-.2,2.17,3.69,6.58,6,6.78a170.92,170.92,0,0,0,27.71-.05c2.41-.19,5-3.53,6.7-6,1.85-2.77,2.73-6.2,4.94-11.53,3.8,11.91,7.09,21.56,9.8,31.37.48,1.76-.84,5-2.38,6.19C54.68,199.63,51.67,218.34,53.82,239c.45,4.31,0,8.71.07,13.06,0,5.17,1.76,9.48,7.67,9.51s8.82-3.19,8.75-9.32c-.12-10.35-.25-20.72.31-31a16.52,16.52,0,0,1,4-9.84C80.77,204.9,87.7,199.17,94.78,192.76Z"/><path class="cls-2" d="M43.49,98.28c0,8.93,7.58,16.67,16.38,16.65A16.83,16.83,0,0,0,76.38,98.3,16,16,0,0,0,59.92,82C50.44,82,43.52,88.86,43.49,98.28Z"/></svg>