<svg id="Capa_1" data-name="Capa 1" xmlns="http://www.w3.org/2000/svg" xmlns:xlink="http://www.w3.org/1999/xlink" viewBox="0 0 300 300"><defs><style>.cls-1{fill:url(#Degradado_sin_nombre_29);}.cls-2{fill:url(#Degradado_sin_nombre_29-2);}.cls-3{fill:#154670;}</style><linearGradient id="Degradado_sin_nombre_29" x1="46.95" y1="146.35" x2="262.67" y2="146.35" gradientUnits="userSpaceOnUse"><stop offset="0" stop-color="#172a8b"/><stop offset="1" stop-color="#1b7bb2"/></linearGradient><linearGradient id="Degradado_sin_nombre_29-2" x1="158.21" y1="62.15" x2="185.14" y2="62.15" xlink:href="#Degradado_sin_nombre_29"/></defs><path class="cls-1" d="M87.3,38.77v3.41q0,24.14,0,48.27c0,6.33,2.38,8.7,8.69,8.7H197c6.05,0,8.42-2.35,8.42-8.34q0-24.42,0-48.83V38.54c5.61,0,11,0,16.42.07.67,0,1.39.83,2,1.4Q242.41,58.63,261,77.32a6,6,0,0,1,1.6,3.81q.12,79.35,0,158.69c0,9-5.43,14.37-14.34,14.38q-93.36,0-186.72,0c-9.27,0-14.62-5.37-14.62-14.66q0-93.22,0-186.44c0-9.26,5.39-14.57,14.69-14.6,8.13,0,16.27,0,24.41,0A8.83,8.83,0,0,1,87.3,38.77Zm67.48,202h73c5.48,0,8-2.53,8-7.91q0-46,0-92.05c0-5.42-2.53-7.91-8-7.93l-127.84-.47c-6,0-12,0-17.92,0-5.64,0-8.44,2.83-8.41,8.58.05,8,.22,16.08.23,24.12q0,33.57,0,67.13c0,6.19,2.34,8.54,8.54,8.54Z"/><path class="cls-2" d="M158.51,38.68h26.63v2.89q0,19.56,0,39.1c0,4-.87,4.93-4.85,4.94-6,0-12,0-18,0-2.81,0-4-1.12-4-3.77,0-14.14,0-28.28,0-42.42A3.06,3.06,0,0,1,158.51,38.68Z"/><path class="cls-3" d="M248.41,211.47,211.81,248c-16.2-15.33-32.66-30.84-49-46.47a12.8,12.8,0,0,1-3.06-5.36c-3.79-12.61-7.56-25.23-11-37.94-2-7.16,1.07-10,8.36-7.9,12.66,3.6,25.26,7.42,37.85,11.25a12.26,12.26,0,0,1,4.94,2.55C216.11,179.8,232.22,195.63,248.41,211.47ZM190.9,171.54c-7-2.15-13.83-4.77-20.91-6-1.68-.3-6.23,4.32-5.92,6.06,1.25,7.07,3.87,13.9,6,21C180.9,189,187.88,182.6,190.9,171.54Z"/><path class="cls-3" d="M231.42,269.24l36.32-36.57c1.75,2,3.56,4,5.31,6.08,4.42,5.25,4.93,10.83.36,15.89A268.67,268.67,0,0,1,253,275c-4.5,4-10,3.94-14.95,0C235.8,273.3,233.71,271.27,231.42,269.24Z"/><path class="cls-3" d="M261.69,226.18l-37.27,37.39-7.11-7.21,37.39-37.65Z"/></svg>