<svg id="Capa_1" data-name="Capa 1" xmlns="http://www.w3.org/2000/svg" xmlns:xlink="http://www.w3.org/1999/xlink" viewBox="0 0 300 300"><defs><style>.cls-1{fill:url(#Degradado_sin_nombre_29);}.cls-2{fill:url(#Degradado_sin_nombre_29-2);}.cls-3{fill:url(#Degradado_sin_nombre_29-3);}</style><linearGradient id="Degradado_sin_nombre_29" x1="94.04" y1="121.29" x2="283.44" y2="121.29" gradientUnits="userSpaceOnUse"><stop offset="0" stop-color="#172a8b"/><stop offset="1" stop-color="#1b7bb2"/></linearGradient><linearGradient id="Degradado_sin_nombre_29-2" x1="34.48" y1="226.46" x2="132.12" y2="226.46" xlink:href="#Degradado_sin_nombre_29"/><linearGradient id="Degradado_sin_nombre_29-3" x1="144.36" y1="121.53" x2="233.05" y2="121.53" xlink:href="#Degradado_sin_nombre_29"/></defs><path class="cls-1" d="M283.44,128.47c-2.25,9.22-3.34,18.93-6.95,27.59-14,33.48-39.08,53.52-75.23,58.86-49,7.23-96.5-26.11-105.77-77.54C86.28,86.34,122,36.25,173.57,27.92c2.69-.43,5.38-.83,8.07-1.25H196a20.6,20.6,0,0,0,3.1.9c37.09,4.82,63,24.69,77.28,59,3.75,9,4.76,19.07,7,28.65Zm-94.89,62.94c38.29,0,70.46-32,70.23-69.86-.23-38.62-31.45-70-69.88-70.2-37.93-.21-70,31.5-70.15,69.29C118.64,159.47,150.11,191.39,188.55,191.41Z"/><path class="cls-2" d="M34.48,242.44c2-9,7.62-15.51,14-21.76,14.5-14.12,28.7-28.55,43.56-43.39,10.38,16.75,23.52,30.32,40.05,40.19-.15.71-.11,1.17-.32,1.38C115.44,235.31,99.28,252,82.5,268c-3.85,3.68-9.83,5.15-14.83,7.63H59.93c-2.07-.65-4.16-1.25-6.21-1.95-11.25-3.87-16.62-12.56-19.24-23.5Z"/><path class="cls-3" d="M201,133.92c0,6.7.13,12.58,0,18.46-.21,8-5.29,13.51-12.24,13.51s-12.09-5.71-12.43-13.59c-.13-2.94,0-5.89,0-8.84v-9.55c-6.52,0-12.71.19-18.89,0s-10.75-3.61-12.29-8.58c-1.62-5.28-.59-10.15,3.95-13.27a19.32,19.32,0,0,1,9.18-2.78c5.67-.43,11.4-.12,18-.12,0-6.47-.13-12.63,0-18.79.23-8.13,5.17-13.19,12.52-13.15,6.88,0,11.64,4.42,12,11.74.33,6.4.07,12.83.07,20.26,7.07,0,13.63-.27,20.16.07,8.65.46,13.64,7.57,11.46,15.75-1.39,5.21-6.38,8.71-13.17,8.89C213.52,134.05,207.65,133.92,201,133.92Z"/></svg>