<svg id="Capa_1" data-name="Capa 1" xmlns="http://www.w3.org/2000/svg" xmlns:xlink="http://www.w3.org/1999/xlink" viewBox="0 0 300 300"><defs><style>.cls-1{fill:url(#Degradado_sin_nombre_24);}.cls-2{fill:url(#Degradado_sin_nombre_25);}</style><linearGradient id="Degradado_sin_nombre_24" x1="9.52" y1="135.65" x2="281.54" y2="135.65" gradientUnits="userSpaceOnUse"><stop offset="0" stop-color="#ffff96"/><stop offset="1" stop-color="#f2ba02"/></linearGradient><linearGradient id="Degradado_sin_nombre_25" x1="95.09" y1="70.02" x2="195.97" y2="70.02" gradientUnits="userSpaceOnUse"><stop offset="0" stop-color="#e68913"/><stop offset="1" stop-color="#f2ba02"/></linearGradient></defs><path class="cls-1" d="M277.63,244.49H40.38c-3.76-1.44-6.68-3.67-7.47-7.91-1.24-6.61-2.48-13.21-3.76-19.8Q24,190.2,18.87,163.62q-3.4-17.55-6.86-35.08c-.76-3.8-1.65-7.57-2.49-11.36V113.7C11,110,14,109,17.7,109c5.64.12,11.28,0,16.92,0,2.86,0,2.87,0,2.87-2.82q0-23,0-46A29.47,29.47,0,0,1,37.61,57,9.19,9.19,0,0,1,46,48.5,7,7,0,0,0,52,43.92a35,35,0,0,0,2-7.68,10.21,10.21,0,0,1,5.23-8c.93-.51,1.89-1,2.83-1.45h70.39C138.1,29,140.42,32.94,141,39c.56,5.67,3.1,9.43,10.27,9.38,39.59-.26,79.18-.12,118.77-.14,3,0,5.91.29,8,2.53a36.44,36.44,0,0,1,3.44,5.13v182.5C280.84,240.83,280.18,243.27,277.63,244.49ZM49.54,109.25H220.72c5.65,0,11.3-.07,16.94,0,6,.11,8.9,2.72,9.93,8.51q5.1,28.72,10.27,57.44,3.83,21.35,7.68,42.7c1.11,6.16,2.25,12.32,3.37,18.49a3.36,3.36,0,0,0,.46-1.86q.06-81,.15-162c0-2.1-.71-2.49-2.6-2.49q-107.52.06-215,0c-1.87,0-2.49.45-2.48,2.41.09,11.51,0,23,0,34.54C49.44,107.61,49.49,108.25,49.54,109.25ZM239,214.76c0-7-.06-13.56,0-20.13,0-1.81-.66-2.15-2.28-2.14q-26.81.06-53.62,0c-1.88,0-2.31.65-2.28,2.38.08,5.79.1,11.58,0,17.37,0,1.92.44,2.6,2.52,2.59,17.66-.08,35.32-.05,53-.05Z"/><path class="cls-2" d="M169,85c-1.2-1-1.45-1.46-1.73-1.48-22.25-1.74-23.9-4-17.62-26.58,6.67-24,23.55-37.08,46.37-43.3-29.7-12-71.47,23.23-79.47,68.74H95.09c13.32,16.47,25,30.87,37.55,46.46Z"/></svg>