<svg id="Capa_1" data-name="Capa 1" xmlns="http://www.w3.org/2000/svg" xmlns:xlink="http://www.w3.org/1999/xlink" viewBox="0 0 300 300"><defs><style>.cls-1{fill:url(#Degradado_sin_nombre_29);}</style><linearGradient id="Degradado_sin_nombre_29" x1="8.61" y1="151.79" x2="286.53" y2="151.79" gradientUnits="userSpaceOnUse"><stop offset="0" stop-color="#172a8b"/><stop offset="1" stop-color="#1b7bb2"/></linearGradient></defs><path class="cls-1" d="M147,290.71c-76.55,0-138.41-62.1-138.42-138.85A138.63,138.63,0,0,1,148,12.87c76.93.12,138.65,62.48,138.53,140C286.41,229,223.91,290.77,147,290.71Zm19.48-110.85c0-16,.06-31.9,0-47.85-.05-11.17-8-19.54-18.69-19.79a19.3,19.3,0,0,0-19.43,19.21q-.28,48.65,0,97.3A19.21,19.21,0,0,0,147.76,248c10.59-.17,18.64-8.5,18.72-19.72C166.61,212.12,166.52,196,166.51,179.86ZM147.43,63.6a17.71,17.71,0,0,0-17.69,18,17.78,17.78,0,0,0,35.55-.19A17.71,17.71,0,0,0,147.43,63.6Z"/></svg>