<svg id="Capa_1" data-name="Capa 1" xmlns="http://www.w3.org/2000/svg" xmlns:xlink="http://www.w3.org/1999/xlink" viewBox="0 0 300 300"><defs><style>.cls-1{fill:url(#Degradado_sin_nombre_25);}.cls-2{fill:url(#Degradado_sin_nombre_25-2);}.cls-3{fill:url(#Degradado_sin_nombre_25-3);}.cls-4{fill:url(#Degradado_sin_nombre_25-4);}.cls-5{fill:url(#Degradado_sin_nombre_25-5);}.cls-6{fill:url(#Degradado_sin_nombre_25-6);}</style><linearGradient id="Degradado_sin_nombre_25" x1="30.23" y1="163.21" x2="224.28" y2="163.21" gradientUnits="userSpaceOnUse"><stop offset="0" stop-color="#e68913"/><stop offset="1" stop-color="#f2ba02"/></linearGradient><linearGradient id="Degradado_sin_nombre_25-2" x1="69.34" y1="136.26" x2="261.4" y2="136.26" xlink:href="#Degradado_sin_nombre_25"/><linearGradient id="Degradado_sin_nombre_25-3" x1="82.17" y1="172.84" x2="172.06" y2="172.84" xlink:href="#Degradado_sin_nombre_25"/><linearGradient id="Degradado_sin_nombre_25-4" x1="82.09" y1="146.55" x2="172.72" y2="146.55" xlink:href="#Degradado_sin_nombre_25"/><linearGradient id="Degradado_sin_nombre_25-5" x1="81.7" y1="198.7" x2="172.42" y2="198.7" xlink:href="#Degradado_sin_nombre_25"/><linearGradient id="Degradado_sin_nombre_25-6" x1="82.07" y1="225.15" x2="172.82" y2="225.15" xlink:href="#Degradado_sin_nombre_25"/></defs><path class="cls-1" d="M30.37,70.51c.14-17.41,9.39-27.95,24.74-28.08q49.44-.39,98.88.15c3.62,0,8.28,1.92,10.62,4.56C183,67.94,201.21,89,218.89,110.37c3.15,3.82,5.05,9.84,5.1,14.86.39,43.27.32,86.54.18,129.81-.06,19.63-9.64,29.08-29,29.1-43.95,0-87.9-.07-131.85,0-24.63,0-33-8.27-33-33.34q0-43.8,0-87.58C30.3,132.33,30.11,101.42,30.37,70.51ZM73.64,51.2C40.88,51.2,40,52.08,40,84.62q0,83.51,0,167c0,19,4.73,23.67,23.77,23.67q64.42,0,128.85,0c16.37,0,21.78-5.25,21.83-21.37.15-42.62,0-85.23.32-127.84.06-8.29-2.25-11.91-11.16-11.34a90.87,90.87,0,0,1-23.47-1.36c-12-2.41-17.69-9.24-18.22-21.45-.57-13-.13-26-.13-40.71Zm99.57,19.5-3.49.68c1.47,9.49.71,20.18,5,28.16,4.8,8.95,15.86,6.49,27.16,5.61Z"/><path class="cls-2" d="M233.86,248.77c16.9-5.93,17.65-6.74,17.67-24.68l.12-112.37c0-23.4,0-23.4-23.24-23.57C207,88,198.86,79.73,198.8,58c0-10.87,0-21.74,0-33.34-36.63,0-71.6-.23-106.56.3-4.1.06-8.12,4.29-12.21,6.51-3.08,1.67-6.21,3.22-10.68,5.53,2.6-15,10.2-21.31,24.13-21.37,32.3-.13,64.6-.21,96.88.26a18.57,18.57,0,0,1,12.2,5.62q27.06,30.33,53,61.64A25.34,25.34,0,0,1,261,97.86c.45,43.64.44,87.29.27,130.93-.08,19.52-10,28.72-32.93,28.18C230.89,253.06,231.87,249.47,233.86,248.77ZM209.77,43.34C203.36,71,211.2,83.22,238.14,77.45Z"/><path class="cls-3" d="M82.17,168.1v9.48h89.89V168.1Z"/><path class="cls-4" d="M82.09,141.94v9.21h90.07c.17-2.78.34-5.64.56-9.21Z"/><path class="cls-5" d="M172.42,203.27v-9.14H82.47c-.23,2.72-.46,5.56-.77,9.14Z"/><path class="cls-6" d="M82.07,220.49v9.32h90c.22-2.84.45-5.72.74-9.32Z"/></svg>