<svg id="Capa_1" data-name="Capa 1" xmlns="http://www.w3.org/2000/svg" xmlns:xlink="http://www.w3.org/1999/xlink" viewBox="0 0 300 300"><defs><style>.cls-1{fill:url(#Degradado_sin_nombre_29);}.cls-2{fill:url(#Degradado_sin_nombre_29-2);}.cls-3{fill:url(#Degradado_sin_nombre_29-3);}</style><linearGradient id="Degradado_sin_nombre_29" x1="89.48" y1="118.02" x2="271.91" y2="118.02" gradientUnits="userSpaceOnUse"><stop offset="0" stop-color="#172a8b"/><stop offset="1" stop-color="#1b7bb2"/></linearGradient><linearGradient id="Degradado_sin_nombre_29-2" x1="31.86" y1="219.28" x2="125.99" y2="219.28" xlink:href="#Degradado_sin_nombre_29"/><linearGradient id="Degradado_sin_nombre_29-3" x1="137.79" y1="118.11" x2="223.22" y2="118.11" xlink:href="#Degradado_sin_nombre_29"/></defs><path class="cls-1" d="M271.91,124.82c-2.17,8.9-3.43,18.14-6.67,26.62-14.13,37-52.49,60.88-91.68,57.64-43.27-3.57-77.39-36.31-83.28-79.89C83.52,79.12,120.11,32.9,170.74,27.52a18.68,18.68,0,0,0,3-.85h13.86a12.83,12.83,0,0,0,2.45.82c36.68,4.61,62,24.27,75.61,58.39,3.29,8.23,4.21,17.4,6.23,26.14ZM180.27,185.5c37,.07,68-30.66,67.86-67.21C248,81.06,217.9,50.7,180.89,50.47c-36.84-.24-67.62,30.27-67.8,67.21S143.46,185.43,180.27,185.5Z"/><path class="cls-2" d="M31.86,234.71c2-8.65,7.35-15,13.52-21,14-13.63,27.64-27.56,42-41.9,10,16.2,22.72,29.27,38.64,38.81-.13.67-.09,1.12-.29,1.32-15.78,15.87-31.36,31.94-47.53,47.38-3.72,3.56-9.48,5-14.3,7.37H56.4c-2-.63-4-1.22-6-1.9-10.86-3.7-16-12.13-18.54-22.64Z"/><path class="cls-3" d="M180.48,106.16c9.77,0,19.54-.09,29.31,0,8.58.09,13.36,4.37,13.43,11.73.07,7.16-5,12.06-13.23,12.12q-29.56.22-59.14,0c-6.27,0-10.78-3.31-12.35-8.31s-.56-9.83,3.83-12.77a18.64,18.64,0,0,1,9.39-2.67C161.29,105.94,170.89,106.16,180.48,106.16Z"/></svg>