<svg id="Capa_1" data-name="Capa 1" xmlns="http://www.w3.org/2000/svg" xmlns:xlink="http://www.w3.org/1999/xlink" viewBox="0 0 300 300"><defs><style>.cls-1{fill:url(#Degradado_sin_nombre_24);}.cls-2{fill:url(#Degradado_sin_nombre_24-2);}.cls-3{fill:url(#Degradado_sin_nombre_24-3);}.cls-4{fill:url(#Degradado_sin_nombre_24-4);}.cls-5{fill:url(#Degradado_sin_nombre_24-5);}</style><linearGradient id="Degradado_sin_nombre_24" x1="18.33" y1="63.58" x2="119.85" y2="63.58" gradientUnits="userSpaceOnUse"><stop offset="0" stop-color="#ffff96"/><stop offset="1" stop-color="#f2ba02"/></linearGradient><linearGradient id="Degradado_sin_nombre_24-2" x1="18.33" y1="227.14" x2="119.86" y2="227.14" xlink:href="#Degradado_sin_nombre_24"/><linearGradient id="Degradado_sin_nombre_24-3" x1="181.84" y1="227.15" x2="283.46" y2="227.15" xlink:href="#Degradado_sin_nombre_24"/><linearGradient id="Degradado_sin_nombre_24-4" x1="18.33" y1="275.32" x2="23.51" y2="275.32" xlink:href="#Degradado_sin_nombre_24"/><linearGradient id="Degradado_sin_nombre_24-5" x1="181.85" y1="63.63" x2="283.4" y2="63.63" xlink:href="#Degradado_sin_nombre_24"/></defs><path class="cls-1" d="M18.33,18c2.14-4.08,5.47-5.3,10.05-5.26,24.07.19,48.14.09,72.21.09,3.35,0,6.63,2,7.68,4.93,1.23,3.36.91,6.48-1.77,9.15C98.37,35,90.26,43.16,81.62,51.78a15.88,15.88,0,0,1,2.32,1.63q16.59,16.53,33.14,33.1c3.68,3.69,3.69,6.9,0,10.57q-7.41,7.41-14.83,14.82c-3.3,3.29-6.72,3.3-10,0L56.87,76.48c-8,8-16.1,15.76-23.72,24-3.85,4.13-11.38,4.25-14.32-2.18-.09-.2-.33-.34-.5-.51Z"/><path class="cls-2" d="M18.33,193c1.61-2.1,2.84-4.5,5.82-5.28,3.18-.85,5.86-.36,8.17,1.94,8.18,8.16,16.33,16.34,24.57,24.59l34.79-34.8c4.1-4.1,7.06-4.12,11.1-.09l14.27,14.27c3.77,3.78,3.75,6.91-.09,10.74l-35,35c8,8,15.75,16.1,24,23.72,4.12,3.84,4.25,11.37-2.19,14.31-.2.09-.34.33-.5.5H23.51l-5.18-5.18Z"/><path class="cls-3" d="M198.48,277.91c-2.11-1.62-4.51-2.84-5.29-5.82-.85-3.19-.35-5.87,1.95-8.18,8.16-8.18,16.35-16.33,24.59-24.56q-17.59-17.58-35-35c-3.81-3.81-3.8-6.93,0-10.75Q192,186.27,199.35,179c3.42-3.42,6.75-3.41,10.19,0l35.27,35.3C253,206.13,261,198,269.15,190a9.68,9.68,0,0,1,3.62-2.16,8,8,0,0,1,10.6,7.58c0,24.16-.1,48.31.09,72.46,0,4.59-1.18,7.92-5.26,10.06Z"/><path class="cls-4" d="M18.33,272.73l5.18,5.18H18.33Z"/><path class="cls-5" d="M244.81,76.5,209.7,111.64c-3.67,3.67-6.88,3.66-10.57,0L184.5,97c-3.54-3.55-3.53-6.81,0-10.38l35.21-35.17L195.48,27.21a8.22,8.22,0,0,1-2-9.54c1.23-3,4.33-4.8,8.05-4.8h74c4.75,0,7.86,3.07,7.86,7.78q0,37.26,0,74.52a8,8,0,0,1-4.79,7.52,7.78,7.78,0,0,1-9.34-1.69Z"/></svg>